<?xml version="1.0" standalone="no"?><!DOCTYPE svg PUBLIC "-//W3C//DTD SVG 1.1//EN" "http://www.w3.org/Graphics/SVG/1.1/DTD/svg11.dtd"><svg t="1716627962876" class="icon" viewBox="0 0 1024 1024" version="1.1" xmlns="http://www.w3.org/2000/svg" p-id="4597" xmlns:xlink="http://www.w3.org/1999/xlink" width="200" height="200"><path d="M768.536 400.352c0-144.4-114.688-261.28-256-261.28s-256 117.056-256 261.28c-105.984 0-192 87.784-192 195.952 0 108.16 86.016 195.952 192 195.952v65.32C126.32 857.76 16.752 758.464 1.736 626.616c-15.024-131.864 69.12-254.312 195.752-284.616 27.816-155.2 160.424-267.896 314.88-267.896 154.448 0 287.056 112.696 314.88 267.896 126.12 30.832 209.92 153.104 194.896 284.608-15.016 131.512-123.904 230.8-253.776 231.144v-65.32c105.984 0 192-87.784 192-195.952 0-108.168-85.68-196.128-191.832-196.128zM256.368 792.256h128v65.32h-128v-65.32z m384.168 0h128v65.32h-128v-65.32z" fill="#979797" p-id="4598"></path><path d="M539.16 577.144v340c-0.168 17.944-14.336 32.576-32.08 32.92-17.584-0.168-31.92-14.8-32.088-32.92v-340l-36.184 36.928a31.68 31.68 0 0 1-45.056-0.176 32.208 32.208 0 0 1-9.56-22.992c0-8.712 3.416-16.896 9.392-22.992l90.96-92.84a31.576 31.576 0 0 1 22.528-9.408 30.064 30.064 0 0 1 22.36 9.232l90.96 92.84a33.288 33.288 0 0 1-0.16 45.984 30.936 30.936 0 0 1-22.536 9.76 31.448 31.448 0 0 1-22.528-9.584l-36-36.752z" fill="#979797" p-id="4599"></path></svg>